<?xml version="1.0" encoding="utf-8"?>
<!-- Generator: Adobe Illustrator 15.0.0, SVG Export Plug-In . SVG Version: 6.00 Build 0)  -->
<!DOCTYPE svg PUBLIC "-//W3C//DTD SVG 1.1//EN" "http://www.w3.org/Graphics/SVG/1.1/DTD/svg11.dtd">
<svg version="1.1" id="Layer_1" xmlns="http://www.w3.org/2000/svg" xmlns:xlink="http://www.w3.org/1999/xlink" x="0px" y="0px"
	 width="19px" height="20px" viewBox="0 0 19 20" enable-background="new 0 0 19 20" xml:space="preserve">
<g>
	<path fill-rule="evenodd" clip-rule="evenodd" fill="#005387" d="M16,2v2h-4V2H7v2H3V2H0v18h19V2H16z M18,19H1V6h17V19z"/>
	<rect x="4" fill-rule="evenodd" clip-rule="evenodd" fill="#005387" width="2" height="3"/>
	<rect x="13" fill-rule="evenodd" clip-rule="evenodd" fill="#005387" width="2" height="3"/>
	<rect x="3" y="7" fill-rule="evenodd" clip-rule="evenodd" fill="#005387" width="3" height="3"/>
	<rect x="8" y="7" fill-rule="evenodd" clip-rule="evenodd" fill="#005387" width="3" height="3"/>
	<rect x="13" y="7" fill-rule="evenodd" clip-rule="evenodd" fill="#005387" width="3" height="3"/>
	<rect x="3" y="11" fill-rule="evenodd" clip-rule="evenodd" fill="#005387" width="3" height="3"/>
	<rect x="8" y="11" fill-rule="evenodd" clip-rule="evenodd" fill="#005387" width="3" height="3"/>
	<rect x="13" y="11" fill-rule="evenodd" clip-rule="evenodd" fill="#005387" width="3" height="3"/>
	<rect x="3" y="15" fill-rule="evenodd" clip-rule="evenodd" fill="#005387" width="3" height="3"/>
	<rect x="8" y="15" fill-rule="evenodd" clip-rule="evenodd" fill="#005387" width="3" height="3"/>
	<rect x="13" y="15" fill-rule="evenodd" clip-rule="evenodd" fill="#005387" width="3" height="3"/>
</g>
</svg>
