<?xml version="1.0" encoding="utf-8"?>
<!-- Generator: Adobe Illustrator 15.0.0, SVG Export Plug-In . SVG Version: 6.00 Build 0)  -->
<!DOCTYPE svg PUBLIC "-//W3C//DTD SVG 1.1//EN" "http://www.w3.org/Graphics/SVG/1.1/DTD/svg11.dtd">
<svg version="1.1" id="Layer_1" xmlns="http://www.w3.org/2000/svg" xmlns:xlink="http://www.w3.org/1999/xlink" x="0px" y="0px"
	 width="19px" height="20px" viewBox="0 0 19 20" enable-background="new 0 0 19 20" xml:space="preserve">
<g>
	<g>
		<path fill="#005387" d="M14.36,13.017c-0.609-0.602-1.372-0.602-1.978,0c-0.463,0.459-0.926,0.918-1.379,1.385
			c-0.125,0.128-0.23,0.155-0.382,0.069c-0.299-0.164-0.618-0.295-0.906-0.474c-1.341-0.845-2.464-1.929-3.459-3.148
			c-0.493-0.606-0.933-1.256-1.24-1.987c-0.062-0.147-0.051-0.245,0.07-0.366C5.55,8.049,6,7.591,6.456,7.132
			c0.633-0.638,0.633-1.384-0.004-2.025C6.09,4.742,5.729,4.384,5.368,4.019c-0.374-0.373-0.743-0.75-1.121-1.119
			C3.638,2.305,2.875,2.305,2.27,2.903c-0.467,0.459-0.914,0.929-1.389,1.38c-0.438,0.416-0.661,0.925-0.707,1.52
			C0.101,6.771,0.338,7.684,0.671,8.574c0.685,1.842,1.727,3.479,2.989,4.98c1.707,2.028,3.743,3.633,6.125,4.792
			c1.072,0.521,2.185,0.921,3.394,0.987c0.832,0.047,1.555-0.163,2.134-0.813c0.396-0.443,0.843-0.848,1.263-1.271
			c0.622-0.63,0.627-1.392,0.008-2.014C15.847,14.494,15.103,13.756,14.36,13.017z"/>
		<path fill="#005387" d="M13.618,9.919l1.435-0.245c-0.225-1.318-0.847-2.511-1.791-3.459c-0.999-0.999-2.263-1.629-3.654-1.823
			L9.405,5.834c1.078,0.152,2.057,0.637,2.831,1.411C12.966,7.976,13.443,8.9,13.618,9.919z"/>
		<path fill="#005387" d="M15.861,3.685c-1.655-1.656-3.751-2.701-6.063-3.024L9.596,2.103c1.998,0.28,3.809,1.186,5.24,2.612
			c1.356,1.356,2.245,3.07,2.568,4.956l1.435-0.246C18.461,7.241,17.432,5.259,15.861,3.685z"/>
	</g>
</g>
</svg>
