<?xml version="1.0" encoding="utf-8"?>
<!-- Generator: Adobe Illustrator 19.2.1, SVG Export Plug-In . SVG Version: 6.00 Build 0)  -->
<svg version="1.1" id="Layer_1" xmlns="http://www.w3.org/2000/svg" xmlns:xlink="http://www.w3.org/1999/xlink" x="0px" y="0px"
	 width="335.3px" height="142px" viewBox="0 0 335.3 142" style="enable-background:new 0 0 335.3 142;" xml:space="preserve">
<style type="text/css">
	.st0{enable-background:new    ;}
	.st1{fill:#333333;}
	.st2{fill:#047FBC;}
	.st3{fill:none;stroke:#FF9A36;stroke-width:5;stroke-linecap:round;stroke-miterlimit:10;}
	.st4{fill:#FF9A36;}
	.st5{fill:#FFFFFF;}
</style>
<g class="st0">
	<path class="st1" d="M18,81.9c-12.2,0-18.3-4.4-18.3-13.3c0-1.4,0.2-2.8,0.5-4.4l1-5.6h13.6l-0.5,2.5C14.1,62.4,14,63.7,14,65
		c0,1.3,0.3,2.4,1,3.3c1,1.3,2.7,1.9,5,1.9c2.3,0,4.2-0.6,5.6-1.9c1.4-1.3,2.5-3.6,3.1-7l6.2-35.1h13.6l-6.4,36.1
		C41,69.1,38.4,74,34.5,77.2C30.7,80.3,25.1,81.9,18,81.9z"/>
	<path class="st1" d="M76.1,80.9L76.5,69H63.9l-3.7,11.9H45.7l19.5-54.5h25l0.3,54.5H76.1z M72.9,39.6l-6,19.2h9.9l0.8-19.2H72.9z"
		/>
	<path class="st1" d="M116.8,81.9c-7.2,0-12.2-1.6-15-4.7c-1.9-2.2-2.9-5.3-2.9-9.3c0-1.7,0.2-3.6,0.5-5.5l3.1-17.4
		c2.3-12.8,10.5-19.2,24.6-19.2c5.9,0,10.3,1.2,13.3,3.7c3,2.5,4.5,5.9,4.5,10.3c0,2-0.3,4-0.9,6c-0.6,2-1.1,3.5-1.7,4.4l-0.8,1.5
		h-13.4c1.7-1.9,2.5-4.6,2.5-8.2c0-1.9-0.5-3.3-1.4-4.4c-1-1.1-2.4-1.6-4.2-1.6c-5.1,0-8.1,2.8-9.1,8.5l-2.7,15.3
		c-0.3,1.3-0.4,2.6-0.4,3.9c0,3.3,2,5,6,5c4.8,0,7.7-2.7,8.6-8.1h13.6l-0.4,2.2C138.8,76,130.8,81.9,116.8,81.9z"/>
	<path class="st1" d="M199.5,26.3l-17.3,27.5l7.7,27h-14.4l-5.7-20h-6l-3.6,20h-13.6l9.6-54.5h13.6l-4,22.7h4.8l14.4-22.7H199.5z"/>
	<path class="st1" d="M210.2,65.3c0,3.5,2.5,5.2,7.5,5.2c5,0,7.5-1.6,7.5-4.7c0-1.7-0.9-3-2.6-4.1c-1.7-1.1-3.8-1.9-6.2-2.7
		c-2.5-0.7-4.9-1.5-7.3-2.5c-2.5-0.9-4.5-2.4-6.2-4.4c-1.7-2-2.6-4.5-2.6-7.5c0-12.7,8.2-19,24.5-19c6,0,10.5,1.1,13.5,3.4
		c3.1,2.2,4.6,5.4,4.6,9.4c0,1.5-0.2,2.9-0.6,4.2c-0.4,1.3-0.8,2.3-1.2,2.8l-0.6,0.9h-13.4c1.1-1.2,1.7-2.6,1.7-4.4
		c0-3.3-2.1-4.9-6.4-4.9c-5.4,0-8.1,1.7-8.1,5.2c0,1.7,0.9,3.1,2.6,4.1c1.7,1,3.8,1.8,6.2,2.4c2.4,0.6,4.9,1.3,7.4,2.2
		c2.5,0.9,4.6,2.3,6.3,4.3c1.7,2,2.6,4.6,2.6,7.8c0,6.4-1.9,11.2-5.8,14.3c-3.8,3.1-9.7,4.7-17.7,4.7c-8,0-13.4-1.4-16.4-4.2
		c-2.2-2.1-3.3-5-3.3-8.8c0-1.4,0.2-3,0.5-4.6l0.2-1.2h13.6l-0.2,0.9C210.3,64.5,210.2,64.9,210.2,65.3z"/>
</g>
<g class="st0">
	<path class="st2" d="M160.8,90.5l-5.7,32.4H147l2.1-11.7h-8.8l-2,11.7h-8.1l5.7-32.4h8.1l-2.4,13.7h8.8l2.4-13.7H160.8z"/>
	<path class="st2" d="M175.3,90.5l-5.7,32.4h-8.1l5.7-32.4H175.3z"/>
	<path class="st2" d="M190.4,113.6H177l1-5.7h13.5L190.4,113.6z"/>
	<path class="st2" d="M216.7,111.1h-12l-2.1,11.9h-8.1l5.7-32.4h22.6l-1.3,7h-14.5l-1.1,6.5h12L216.7,111.1z"/>
	<path class="st2" d="M235.5,90.5l-5.7,32.4h-8.1l5.7-32.4H235.5z"/>
</g>
<g>
	<g>
		<polygon class="st2" points="335.3,125.7 246.5,125.7 257.6,26 324.3,26 		"/>
	</g>
</g>
<path class="st3" d="M271.7,28.2c0-11.3,4.3-25.7,19.3-25.7c14.4,0,19.3,14.4,19.3,25.7"/>
<circle class="st4" cx="271.4" cy="32.3" r="4.5"/>
<circle class="st4" cx="310" cy="32.3" r="4.5"/>
<circle class="st5" cx="290.9" cy="88.7" r="23.2"/>
<circle class="st2" cx="290.9" cy="88.7" r="9.2"/>
<circle class="st5" cx="290.9" cy="49" r="10.3"/>
<circle class="st2" cx="290.9" cy="49" r="4.1"/>
</svg>
